<mxfile host="app.diagrams.net" agent="Mozilla/5.0 (Windows NT 10.0; Win64; x64) AppleWebKit/537.36 (KHTML, like Gecko) Chrome/134.0.0.0 Safari/537.36" version="26.1.1">
  <diagram name="Page-1" id="cV0St1rY8bIPu61hlBIA">
    <mxGraphModel grid="1" page="1" gridSize="10" guides="1" tooltips="1" connect="1" arrows="1" fold="1" pageScale="1" pageWidth="850" pageHeight="1100" math="0" shadow="0">
      <root>
        <mxCell id="0" />
        <mxCell id="1" parent="0" />
        <mxCell id="WsW0Mz7EU_6PfMgxL8P1-39" value="" style="edgeStyle=orthogonalEdgeStyle;rounded=0;orthogonalLoop=1;jettySize=auto;html=1;" edge="1" parent="1" source="WsW0Mz7EU_6PfMgxL8P1-1" target="WsW0Mz7EU_6PfMgxL8P1-4">
          <mxGeometry relative="1" as="geometry" />
        </mxCell>
        <mxCell id="WsW0Mz7EU_6PfMgxL8P1-1" value="Requirements&amp;nbsp;&lt;div&gt;Analysis&lt;/div&gt;" style="rounded=1;whiteSpace=wrap;html=1;fontFamily=Times New Roman;" vertex="1" parent="1">
          <mxGeometry x="40" y="240" width="120" height="40" as="geometry" />
        </mxCell>
        <mxCell id="WsW0Mz7EU_6PfMgxL8P1-16" value="" style="edgeStyle=orthogonalEdgeStyle;rounded=0;orthogonalLoop=1;jettySize=auto;html=1;fontFamily=Times New Roman;" edge="1" parent="1" source="WsW0Mz7EU_6PfMgxL8P1-4" target="WsW0Mz7EU_6PfMgxL8P1-6">
          <mxGeometry relative="1" as="geometry" />
        </mxCell>
        <mxCell id="WsW0Mz7EU_6PfMgxL8P1-17" style="edgeStyle=orthogonalEdgeStyle;rounded=0;orthogonalLoop=1;jettySize=auto;html=1;exitX=1;exitY=0.5;exitDx=0;exitDy=0;entryX=0;entryY=0.5;entryDx=0;entryDy=0;fontFamily=Times New Roman;" edge="1" parent="1" source="WsW0Mz7EU_6PfMgxL8P1-4" target="WsW0Mz7EU_6PfMgxL8P1-5">
          <mxGeometry relative="1" as="geometry">
            <Array as="points">
              <mxPoint x="300" y="260" />
              <mxPoint x="300" y="140" />
            </Array>
          </mxGeometry>
        </mxCell>
        <mxCell id="WsW0Mz7EU_6PfMgxL8P1-40" style="edgeStyle=orthogonalEdgeStyle;rounded=0;orthogonalLoop=1;jettySize=auto;html=1;exitX=1;exitY=0.5;exitDx=0;exitDy=0;entryX=0;entryY=0.5;entryDx=0;entryDy=0;" edge="1" parent="1" source="WsW0Mz7EU_6PfMgxL8P1-4" target="WsW0Mz7EU_6PfMgxL8P1-7">
          <mxGeometry relative="1" as="geometry">
            <Array as="points">
              <mxPoint x="300" y="260" />
              <mxPoint x="300" y="300" />
            </Array>
          </mxGeometry>
        </mxCell>
        <mxCell id="WsW0Mz7EU_6PfMgxL8P1-43" style="edgeStyle=orthogonalEdgeStyle;rounded=0;orthogonalLoop=1;jettySize=auto;html=1;exitX=1;exitY=0.5;exitDx=0;exitDy=0;entryX=0;entryY=0.5;entryDx=0;entryDy=0;" edge="1" parent="1" source="WsW0Mz7EU_6PfMgxL8P1-4" target="WsW0Mz7EU_6PfMgxL8P1-11">
          <mxGeometry relative="1" as="geometry" />
        </mxCell>
        <mxCell id="WsW0Mz7EU_6PfMgxL8P1-4" value="Data&amp;nbsp;&lt;div&gt;Preprocessing&lt;/div&gt;" style="rounded=1;whiteSpace=wrap;html=1;fontFamily=Times New Roman;" vertex="1" parent="1">
          <mxGeometry x="200" y="240" width="80" height="40" as="geometry" />
        </mxCell>
        <mxCell id="WsW0Mz7EU_6PfMgxL8P1-30" style="edgeStyle=orthogonalEdgeStyle;rounded=0;orthogonalLoop=1;jettySize=auto;html=1;entryX=0;entryY=0.5;entryDx=0;entryDy=0;fontFamily=Times New Roman;" edge="1" parent="1" source="WsW0Mz7EU_6PfMgxL8P1-47" target="WsW0Mz7EU_6PfMgxL8P1-10">
          <mxGeometry relative="1" as="geometry">
            <Array as="points">
              <mxPoint x="730" y="140" />
              <mxPoint x="730" y="220" />
            </Array>
          </mxGeometry>
        </mxCell>
        <mxCell id="WsW0Mz7EU_6PfMgxL8P1-5" value="Bagging and&amp;nbsp;&lt;div&gt;Boosting&lt;/div&gt;" style="rounded=1;whiteSpace=wrap;html=1;fontFamily=Times New Roman;" vertex="1" parent="1">
          <mxGeometry x="480" y="120" width="120" height="40" as="geometry" />
        </mxCell>
        <mxCell id="WsW0Mz7EU_6PfMgxL8P1-19" value="" style="edgeStyle=orthogonalEdgeStyle;rounded=0;orthogonalLoop=1;jettySize=auto;html=1;fontFamily=Times New Roman;" edge="1" parent="1" source="WsW0Mz7EU_6PfMgxL8P1-6" target="WsW0Mz7EU_6PfMgxL8P1-8">
          <mxGeometry relative="1" as="geometry" />
        </mxCell>
        <mxCell id="WsW0Mz7EU_6PfMgxL8P1-6" value="Data Augmentation - SMOTE" style="rounded=1;whiteSpace=wrap;html=1;fontFamily=Times New Roman;" vertex="1" parent="1">
          <mxGeometry x="320" y="200" width="120" height="40" as="geometry" />
        </mxCell>
        <mxCell id="WsW0Mz7EU_6PfMgxL8P1-20" value="" style="edgeStyle=orthogonalEdgeStyle;rounded=0;orthogonalLoop=1;jettySize=auto;html=1;fontFamily=Times New Roman;" edge="1" parent="1" source="WsW0Mz7EU_6PfMgxL8P1-7" target="WsW0Mz7EU_6PfMgxL8P1-9">
          <mxGeometry relative="1" as="geometry" />
        </mxCell>
        <mxCell id="WsW0Mz7EU_6PfMgxL8P1-7" value="Data Augmentation - CTGAN" style="rounded=1;whiteSpace=wrap;html=1;fontFamily=Times New Roman;" vertex="1" parent="1">
          <mxGeometry x="320" y="280" width="120" height="40" as="geometry" />
        </mxCell>
        <mxCell id="WsW0Mz7EU_6PfMgxL8P1-31" value="" style="edgeStyle=orthogonalEdgeStyle;rounded=0;orthogonalLoop=1;jettySize=auto;html=1;fontFamily=Times New Roman;" edge="1" parent="1" source="WsW0Mz7EU_6PfMgxL8P1-8" target="WsW0Mz7EU_6PfMgxL8P1-26">
          <mxGeometry relative="1" as="geometry" />
        </mxCell>
        <mxCell id="WsW0Mz7EU_6PfMgxL8P1-8" value="Machine Learning Algorithms" style="rounded=1;whiteSpace=wrap;html=1;fontFamily=Times New Roman;" vertex="1" parent="1">
          <mxGeometry x="480" y="200" width="120" height="40" as="geometry" />
        </mxCell>
        <mxCell id="WsW0Mz7EU_6PfMgxL8P1-32" value="" style="edgeStyle=orthogonalEdgeStyle;rounded=0;orthogonalLoop=1;jettySize=auto;html=1;fontFamily=Times New Roman;" edge="1" parent="1" source="WsW0Mz7EU_6PfMgxL8P1-9" target="WsW0Mz7EU_6PfMgxL8P1-27">
          <mxGeometry relative="1" as="geometry" />
        </mxCell>
        <mxCell id="WsW0Mz7EU_6PfMgxL8P1-9" value="Machine Learning Algorithms" style="rounded=1;whiteSpace=wrap;html=1;fontFamily=Times New Roman;" vertex="1" parent="1">
          <mxGeometry x="480" y="280" width="120" height="40" as="geometry" />
        </mxCell>
        <mxCell id="WsW0Mz7EU_6PfMgxL8P1-35" value="" style="edgeStyle=orthogonalEdgeStyle;rounded=0;orthogonalLoop=1;jettySize=auto;html=1;fontFamily=Times New Roman;" edge="1" parent="1" source="WsW0Mz7EU_6PfMgxL8P1-10" target="WsW0Mz7EU_6PfMgxL8P1-28">
          <mxGeometry relative="1" as="geometry" />
        </mxCell>
        <mxCell id="WsW0Mz7EU_6PfMgxL8P1-10" value="Stacking Model" style="rounded=1;whiteSpace=wrap;html=1;fontFamily=Times New Roman;" vertex="1" parent="1">
          <mxGeometry x="760" y="200" width="120" height="40" as="geometry" />
        </mxCell>
        <mxCell id="WsW0Mz7EU_6PfMgxL8P1-44" value="" style="edgeStyle=orthogonalEdgeStyle;rounded=0;orthogonalLoop=1;jettySize=auto;html=1;" edge="1" parent="1" source="WsW0Mz7EU_6PfMgxL8P1-11" target="WsW0Mz7EU_6PfMgxL8P1-13">
          <mxGeometry relative="1" as="geometry" />
        </mxCell>
        <mxCell id="WsW0Mz7EU_6PfMgxL8P1-11" value="LLM Selection" style="rounded=1;whiteSpace=wrap;html=1;fontFamily=Times New Roman;" vertex="1" parent="1">
          <mxGeometry x="320" y="360" width="120" height="40" as="geometry" />
        </mxCell>
        <mxCell id="WsW0Mz7EU_6PfMgxL8P1-46" value="" style="edgeStyle=orthogonalEdgeStyle;rounded=0;orthogonalLoop=1;jettySize=auto;html=1;" edge="1" parent="1" source="WsW0Mz7EU_6PfMgxL8P1-13" target="WsW0Mz7EU_6PfMgxL8P1-29">
          <mxGeometry relative="1" as="geometry" />
        </mxCell>
        <mxCell id="WsW0Mz7EU_6PfMgxL8P1-13" value="Website" style="rounded=1;whiteSpace=wrap;html=1;fontFamily=Times New Roman;" vertex="1" parent="1">
          <mxGeometry x="480" y="360" width="120" height="40" as="geometry" />
        </mxCell>
        <mxCell id="WsW0Mz7EU_6PfMgxL8P1-34" value="" style="edgeStyle=orthogonalEdgeStyle;rounded=0;orthogonalLoop=1;jettySize=auto;html=1;fontFamily=Times New Roman;" edge="1" parent="1" source="WsW0Mz7EU_6PfMgxL8P1-26" target="WsW0Mz7EU_6PfMgxL8P1-10">
          <mxGeometry relative="1" as="geometry" />
        </mxCell>
        <mxCell id="WsW0Mz7EU_6PfMgxL8P1-26" value="Testing&amp;nbsp;" style="rounded=1;whiteSpace=wrap;html=1;fontFamily=Times New Roman;" vertex="1" parent="1">
          <mxGeometry x="640" y="200" width="70" height="40" as="geometry" />
        </mxCell>
        <mxCell id="WsW0Mz7EU_6PfMgxL8P1-33" style="edgeStyle=orthogonalEdgeStyle;rounded=0;orthogonalLoop=1;jettySize=auto;html=1;entryX=0;entryY=0.5;entryDx=0;entryDy=0;fontFamily=Times New Roman;" edge="1" parent="1" source="WsW0Mz7EU_6PfMgxL8P1-27" target="WsW0Mz7EU_6PfMgxL8P1-10">
          <mxGeometry relative="1" as="geometry">
            <Array as="points">
              <mxPoint x="730" y="300" />
              <mxPoint x="730" y="220" />
            </Array>
          </mxGeometry>
        </mxCell>
        <mxCell id="WsW0Mz7EU_6PfMgxL8P1-27" value="Testing&amp;nbsp;" style="rounded=1;whiteSpace=wrap;html=1;fontFamily=Times New Roman;" vertex="1" parent="1">
          <mxGeometry x="640" y="280" width="70" height="40" as="geometry" />
        </mxCell>
        <mxCell id="WsW0Mz7EU_6PfMgxL8P1-28" value="Testing&amp;nbsp;" style="rounded=1;whiteSpace=wrap;html=1;fontFamily=Times New Roman;" vertex="1" parent="1">
          <mxGeometry x="920" y="200" width="70" height="40" as="geometry" />
        </mxCell>
        <mxCell id="WsW0Mz7EU_6PfMgxL8P1-29" value="Testing&amp;nbsp;" style="rounded=1;whiteSpace=wrap;html=1;fontFamily=Times New Roman;" vertex="1" parent="1">
          <mxGeometry x="640" y="360" width="70" height="40" as="geometry" />
        </mxCell>
        <mxCell id="WsW0Mz7EU_6PfMgxL8P1-48" value="" style="edgeStyle=orthogonalEdgeStyle;rounded=0;orthogonalLoop=1;jettySize=auto;html=1;entryX=0;entryY=0.5;entryDx=0;entryDy=0;fontFamily=Times New Roman;" edge="1" parent="1" source="WsW0Mz7EU_6PfMgxL8P1-5" target="WsW0Mz7EU_6PfMgxL8P1-47">
          <mxGeometry relative="1" as="geometry">
            <mxPoint x="600" y="140" as="sourcePoint" />
            <mxPoint x="760" y="220" as="targetPoint" />
            <Array as="points" />
          </mxGeometry>
        </mxCell>
        <mxCell id="WsW0Mz7EU_6PfMgxL8P1-47" value="Testing&amp;nbsp;" style="rounded=1;whiteSpace=wrap;html=1;fontFamily=Times New Roman;" vertex="1" parent="1">
          <mxGeometry x="640" y="120" width="70" height="40" as="geometry" />
        </mxCell>
      </root>
    </mxGraphModel>
  </diagram>
</mxfile>
